# xmcd CD Database Entry
#
# Track frame offsets:
# 150
# 18313
# 36261
# 54346
# 98474
# 133592
# 171482
# 202592
# 251460
# 275783
# 295173
#
# Disc length: 4201 seconds
#
# Revision: 2
# Processed by: cddbd v1.4PL0 Copyright (c) Steve Scherf et al.
# Submitted via: tcd 2.0b
#
DISCID=9410670b
DTITLE=Chill Mix
DYEAR=1900
DGENRE=
TTITLE0=Loreena McKennit 
TTITLE1=Dido
TTITLE2=Moby
TTITLE3=Underworld - Born Slippy
TTITLE4=
TTITLE5=
TTITLE6=
TTITLE7=
TTITLE8=
TTITLE9=
TTITLE10=
EXTD=
EXTT0=
EXTT1=
EXTT2=
EXTT3=
EXTT4=
EXTT5=
EXTT6=
EXTT7=
EXTT8=
EXTT9=
EXTT10=
PLAYORDER=
